<?xml version="1.0" encoding="UTF-8"?>
<svg version="1.1" xmlns="http://www.w3.org/2000/svg" width="512" height="512">
<path d="M0 0 C1.22203125 1.11568359 1.22203125 1.11568359 2.46875 2.25390625 C4.61174312 4.19331503 6.79594638 6.06829299 9 7.9375 C12.2165377 10.75117115 15.04145032 13.72514755 17.79296875 16.9921875 C19.30452409 18.77564738 20.85562995 20.52571735 22.42578125 22.2578125 C63.89445004 68.36451684 82.5273906 130.79724286 79.68798828 192.06152344 C76.5721985 244.80099386 55.6036041 295.61530673 20.203125 334.83300781 C18.83103993 336.35444203 17.47670066 337.89014021 16.125 339.4296875 C12.0037099 344.06613886 7.85221643 348.48129142 3.08984375 352.4609375 C1.34236767 353.92965667 -0.36702098 355.44379044 -2.05859375 356.9765625 C-48.16082479 398.45598184 -110.60775763 417.08998261 -171.87402344 414.25048828 C-193.4688357 412.97469058 -214.81934775 408.60846171 -235.1875 401.375 C-235.86393555 401.14200195 -236.54037109 400.90900391 -237.23730469 400.66894531 C-266.87025286 390.4352579 -292.73979941 373.99876228 -316.1875 353.375 C-317.67636719 352.07175781 -317.67636719 352.07175781 -319.1953125 350.7421875 C-323.84367823 346.60045564 -328.27928646 342.43207426 -332.2734375 337.65234375 C-333.74215667 335.90486767 -335.25629044 334.19547902 -336.7890625 332.50390625 C-378.26848184 286.40167521 -396.90248261 223.95474237 -394.06298828 162.68847656 C-390.85397821 108.37111122 -368.84960329 57.74287137 -332.30859375 17.71875 C-330.36918497 15.57575688 -328.49420701 13.39155362 -326.625 11.1875 C-323.81132885 7.9709623 -320.83735245 5.14604968 -317.5703125 2.39453125 C-315.78685262 0.88297591 -314.03678265 -0.66812995 -312.3046875 -2.23828125 C-237.98139577 -69.08513168 -124.22244893 -76.92727023 0 0 Z " fill="#B8D55F" transform="translate(413.1875,78.625)"/>
<path d="M0 0 C4.73094717 4.28038077 8.21146692 7.86900832 8.81420648 14.4366557 C8.90819136 20.0655716 7.94214554 24.57812211 6.02090454 29.84346008 C5.60830497 31.0283168 5.60830497 31.0283168 5.18737006 32.23711002 C4.59387109 33.93655641 3.99409826 35.63382254 3.388623 37.32903898 C2.08557488 40.97791471 0.81355152 44.6373943 -0.46118152 48.29623801 C-1.12269225 50.19345432 -1.78585179 52.09009651 -2.45061409 53.98617595 C-5.68822538 63.22594879 -8.78650574 72.50933528 -11.85791016 81.80541992 C-12.3933968 83.422055 -12.92903929 85.03863846 -13.46483421 86.65517139 C-14.55527087 89.94592099 -15.64475545 93.23698356 -16.73353958 96.52828026 C-18.47152216 101.78087796 -20.21403713 107.03196612 -21.95736694 112.28279114 C-22.25612059 113.18268947 -22.55487424 114.08258781 -22.86268103 115.00975579 C-23.47114462 116.84254382 -24.07961561 118.6753294 -24.6880939 120.50811255 C-28.72128571 132.65713605 -32.75127671 144.80720498 -36.77099609 156.96069336 C-39.52070657 165.2742347 -42.27678968 173.58563308 -45.04025114 181.89461404 C-46.49145428 186.25885292 -47.93940138 190.62411041 -49.3794136 194.99205589 C-50.72288909 199.06708048 -52.07471067 203.13923834 -53.43299866 207.20934868 C-53.92794471 208.69742748 -54.4198133 210.18653406 -54.90832138 211.67673874 C-55.57659465 213.7137822 -56.2559697 215.7467965 -56.93814087 217.77922058 C-57.31448481 218.91508197 -57.69082874 220.05094336 -58.07857704 221.22122478 C-60.2939864 226.61059488 -62.92158087 230.9732186 -68.26171875 233.671875 C-73.54130717 235.42848483 -78.68796575 235.36190456 -83.90625 233.4453125 C-88.5943723 230.80433694 -90.86450343 227.98589986 -92.8190918 222.99951172 C-93.24048431 221.93198669 -93.66187683 220.86446167 -94.09603882 219.7645874 C-96.2444555 214.07071162 -98.34533806 208.3631872 -100.39453125 202.6328125 C-100.86119062 201.3349333 -101.32813155 200.03715529 -101.79533386 198.73947144 C-103.01631793 195.3459536 -104.23378542 191.95118543 -105.45037842 188.55609131 C-106.42306743 185.8429196 -107.39763959 183.13042703 -108.37265301 180.41808987 C-108.85388097 179.0791044 -109.3347686 177.73999658 -109.81531239 176.40076542 C-110.99729115 173.10787468 -112.18446324 169.81704654 -113.38298035 166.53013611 C-115.5307483 160.62465221 -117.61091509 154.71762122 -119.46801758 148.71313477 C-122.48085517 137.43212767 -122.48085517 137.43212767 -130.41015625 129.63671875 C-133.31330901 128.69842214 -133.31330901 128.69842214 -136.4375 128.0625 C-138.82482307 127.35799071 -141.21007707 126.64644977 -143.59375 125.9296875 C-144.25351334 125.74503433 -144.91327667 125.56038116 -145.59303284 125.37013245 C-155.0156434 122.72357474 -164.14577236 119.20361538 -173.32540894 115.82754517 C-176.36215473 114.71510106 -179.4035925 113.61682219 -182.44750977 112.52416992 C-191.46773132 109.28557646 -200.47624223 106.0146269 -209.43359375 102.60546875 C-210.15362076 102.33712723 -210.87364777 102.06878571 -211.61549377 101.79231262 C-217.81787161 99.40037399 -223.51073804 96.68752863 -226.6796875 90.49609375 C-228.48228443 84.99716041 -228.43880513 78.74206585 -225.875 73.5 C-221.42860775 67.23931141 -213.89835651 64.53725386 -206.85624695 62.23014832 C-206.03637875 61.95227818 -205.21651055 61.67440805 -204.37179786 61.38811761 C-201.64783073 60.46778713 -198.91915013 59.56237636 -196.19018555 58.65698242 C-194.22629737 57.99700366 -192.26270203 57.33615298 -190.29937744 56.67449951 C-184.98236495 54.88586762 -179.66096259 53.11066333 -174.33834815 51.33878112 C-169.88888015 49.85637962 -165.44148971 48.36779827 -160.99404174 46.87934953 C-150.49903284 43.36721853 -140.00030652 39.8663706 -129.49926758 36.37231445 C-118.67947865 32.77195941 -107.86646654 29.15178481 -97.05654496 25.52192229 C-87.76173437 22.40165687 -78.46270401 19.29421395 -69.16023475 16.19685632 C-63.61026249 14.34876062 -58.06203752 12.49580231 -52.51788902 10.63030052 C-47.30326249 8.87625667 -42.08353655 7.13832161 -36.85952759 5.41242981 C-34.94811433 4.77800008 -33.03854385 4.13798568 -31.13105202 3.49186134 C-8.5886451 -4.13527357 -8.5886451 -4.13527357 0 0 Z " fill="#FEFEFE" transform="translate(365.375,139.625)"/>
</svg>
